<svg xmlns="http://www.w3.org/2000/svg" viewBox="0 0 800 480" width="100%" role="img" aria-labelledby="title desc" preserveAspectRatio="xMidYMid meet"><title id="title">W1R-SA-019 — truss_geometry_diagram</title><desc id="desc">Question-specific truss geometry diagram for W1R-SA-019. All displayed quantities are authored givens; requested answer values are omitted.</desc><defs><marker id="arrow" markerWidth="8" markerHeight="8" refX="7" refY="4" orient="auto"><path d="M0,0 L8,4 L0,8 Z" fill="#17324d"/></marker><style>text{font-family:Arial,sans-serif;fill:#102a43;font-size:15px}.s{stroke:#17324d;stroke-width:3;fill:none}.d{stroke:#486581;stroke-width:2;fill:none;stroke-dasharray:7 5}.f{fill:#d9eaf7;stroke:#17324d;stroke-width:3}.a{stroke:#17324d;stroke-width:3;fill:none;marker-end:url(#arrow)}.thin{stroke:#829ab1;stroke-width:1.5;fill:none}</style></defs><path class="s" d="M90 350 L200 170 L310 350 L420 170 L510 350 M90 350 L310 350 L510 350 M200 170 L420 170 M200 170 L310 350 M310 350 L420 170"/><circle class="f" cx="90" cy="350" r="8"/><text x="98" y="342">A</text><circle class="f" cx="200" cy="170" r="8"/><text x="208" y="162">B</text><circle class="f" cx="310" cy="350" r="8"/><text x="318" y="342">C</text><circle class="f" cx="420" cy="170" r="8"/><text x="428" y="162">D</text><circle class="f" cx="510" cy="350" r="8"/><text x="518" y="342">E</text><line class="a" x1="310" y1="350" x2="310" y2="430"/><text x="317" y="423">joint load</text><rect x="555" y="35" width="220" height="410" rx="10" fill="#f0f4f8" stroke="#9fb3c8"/><text x="570" y="62" font-weight="bold">Question givens</text><text x="570" y="88">geometry: exactly two non-co…</text><text x="570" y="113">joint: J1</text><text x="570" y="138">loaded: False</text><text x="570" y="163">support: False</text></svg>
